/* XPM */
static char *a23da0aa5cc848489ba45cd8adee533byZGtVVzw4gRTSCjH[] = {
/* columns rows colors chars-per-pixel */
"16 16 2 1 ",
"  c None",
". c #FFAB00",
/* pixels */
"       ..       ",
"     ..  ..     ",
"  ....    ....  ",
". .          . .",
"                ",
"  ...      ...  ",
".   ...  ...   .",
".              .",
".              .",
".      ..      .",
".      ..      .",
"       ..       ",
".      ..      .",
"  ...      ...  ",
"    ...  ...    ",
"       ..       "
};
