/* XPM */
static char *_a30f8f601cc4f99d11db11b64be1a63IeEiJEEQ9SXdbnOg[] = {
/* columns rows colors chars-per-pixel */
"32 32 2 1 ",
"  c None",
". c #FFAB00",
/* pixels */
"               ..               ",
"               ..               ",
"           ..  ..  ..           ",
"        ......    ......        ",
"      ......        ......      ",
"    ......            ......    ",
"    ...                  ...    ",
"...                          ...",
"...                          ...",
"     .                    .     ",
"    .....              .....    ",
"...  .......        .......  ...",
"...    .......    .......    ...",
"...       ...  ..  ..        ...",
"...            ..            ...",
"...                          ...",
"...                          ...",
"...            ..            ...",
"...            ..            ...",
"...            ..            ...",
"...            ..            ...",
"...            ..            ...",
" .             ..             . ",
"               ..               ",
"               ..               ",
"...  .         ..         .  ...",
" .  ....       ..       ....  . ",
"    ........        ........    ",
"       .......    .......       ",
"          ...  ..  ...          ",
"               ..               ",
"               ..               "
};
