/* XPM */
static char *d6abad6a058a4cd9a47fda46988abf593Hl7l3kA2QRsckrM[] = {
/* columns rows colors chars-per-pixel */
"128 128 2 1 ",
"  c None",
". c #FFAB00",
/* pixels */
"                                                                                                                                ",
"                                                                                                                                ",
"                                                                                                                                ",
"                                                            ........                                                            ",
"                                                            ........                                                            ",
"                                                            ........                                                            ",
"                                                            ........                                                            ",
"                                                 ...        ........        ...                                                 ",
"                                              .......       ........       .......                                              ",
"                                            .........       ........       .........                                            ",
"                                          ............       ......       ............                                          ",
"                                        ..............                    ..............                                        ",
"                                     ..................                   .................                                     ",
"                                   ....................                  ....................                                   ",
"                                 ......................                  ......................                                 ",
"                              ........................                    ........................                              ",
"                             ......................                          ......................                             ",
"                          ........................                             .......................                          ",
"                        .......................                                  .......................                        ",
"                      .......................                                       ......................                      ",
"                   ........................                                           .......................                   ",
"                 .......................                                                .......................                 ",
"                ......................                                                    ......................                ",
"                 ...................                                                        ...................                 ",
"                 ................                                                              ................                 ",
"                 ..............                                                                  ..............                 ",
"                  ...........                                                                      ...........                  ",
"                  .........                                                                          .........                  ",
"   .......        ......                                                                                .....         .......   ",
"   ........        ...                                                                                    ...        ........   ",
"   ........                                                                                                          ........   ",
"   ........                                                                                                          ........   ",
"   ........                                                                                                          ........   ",
"   ........                                                                                                          ........   ",
"   ........                                                                                                          ........   ",
"    ......                                                                                                            ......    ",
"                                                                                                                                ",
"                   ..                                                                                     ....                  ",
"                  .......                                                                             ........                  ",
"                  .........                                                                         ..........                  ",
"                  ............                                                                   ..............                 ",
"                 .................                                                           ..................                 ",
"                 ...................                                                       ....................                 ",
"                 ......................                                                 ........................                ",
"   .......      ..........................                                           ...........................      .......   ",
"   ........      ............................                                     .............................      ........   ",
"   ........        .............................                               ..............................        ........   ",
"   ........            ............................                         ..............................           ........   ",
"   ........              .............................                    .............................              ........   ",
"   ........                 ...........................                  ...........................                 ........   ",
"   ........                    .......................                    .......................                    ........   ",
"   ........                       ....................                    ....................                       ........   ",
"   ........                          .................                    .................                          ........   ",
"   ........                            ..............        ......        .............                             ........   ",
"   ........                                ..........       ........       ..........                                ........   ",
"   ........                                   .......       ........       .......                                   ........   ",
"   ........                                     ....        ........        ...                                      ........   ",
"   ........                                                 ........                                                 ........   ",
"   ........                                                 ........                                                 ........   ",
"   ........                                                 ........                                                 ........   ",
"   ........                                                 ........                                                 ........   ",
"   ........                                                 ........                                                 ........   ",
"   ........                                                                                                          ........   ",
"   ........                                                                                                          ........   ",
"   ........                                                                                                          ........   ",
"   ........                                                                                                          ........   ",
"   ........                                                 ........                                                 ........   ",
"   ........                                                 ........                                                 ........   ",
"   ........                                                 ........                                                 ........   ",
"   ........                                                 ........                                                 ........   ",
"   ........                                                 ........                                                 ........   ",
"   ........                                                 ........                                                 ........   ",
"   ........                                                 ........                                                 ........   ",
"   ........                                                 ........                                                 ........   ",
"   ........                                                 ........                                                 ........   ",
"   ........                                                 ........                                                 ........   ",
"   ........                                                 ........                                                 ........   ",
"   ........                                                 ........                                                 ........   ",
"   ........                                                 ........                                                 ........   ",
"   ........                                                 ........                                                 ........   ",
"   ........                                                 ........                                                 ........   ",
"   ........                                                 ........                                                 ........   ",
"   ........                                                 ........                                                 ........   ",
"   ........                                                 ........                                                 ........   ",
"   ........                                                 ........                                                 ........   ",
"   ........                                                 ........                                                 ........   ",
"   ........                                                 ........                                                 ........   ",
"   ........                                                 ........                                                 ........   ",
"   ........                                                 ........                                                 ........   ",
"   .......                                                  ........                                                  .......   ",
"                                                            ........                                                            ",
"                                                            ........                                                            ",
"                                                            ........                                                            ",
"                                                            ........                                                            ",
"                                                            ........                                                            ",
"                                                            ........                                                            ",
"                                                            ........                                                            ",
"                                                            ........                                                            ",
"    ......                                                  ........                                                  ......    ",
"   ........                                                 ........                                                 ........   ",
"   ........                                                 ........                                                 ........   ",
"   ........         .                                       ........                                       .         ........   ",
"   ........        .....                                    ........                                    .....        ........   ",
"   ........       .........                                 ........                                 .........       ........   ",
"   ........       ............                              ........                              ............       ........   ",
"   .......        ..............                            ........                            ..............        .......   ",
"                 ...................                        ........                        ...................                 ",
"                 ......................                     ........                     ......................                 ",
"                 ........................                   ........                   ........................                 ",
"                .............................                ......                .............................                ",
"                  ..............................                                ..............................                  ",
"                     .............................                            .............................                     ",
"                       ...............................                    ...............................                       ",
"                           ............................                  ............................                           ",
"                              .........................                  .........................                              ",
"                                ......................                    ......................                                ",
"                                    ..................                    ..................                                    ",
"                                       ...............       ......       ...............                                       ",
"                                         ............       ........       ............                                         ",
"                                            .........       ........       .........                                            ",
"                                                .....       ........       .....                                                ",
"                                                   .        ........        .                                                   ",
"                                                            ........                                                            ",
"                                                            ........                                                            ",
"                                                            ........                                                            ",
"                                                                                                                                ",
"                                                                                                                                ",
"                                                                                                                                "
};
